<?xml version="1.0" encoding="iso-8859-1"?>
<!-- Generator: Adobe Illustrator 19.0.0, SVG Export Plug-In . SVG Version: 6.00 Build 0)  -->
<svg version="1.1" id="Layer_1" xmlns="http://www.w3.org/2000/svg" xmlns:xlink="http://www.w3.org/1999/xlink" x="0px" y="0px"
	 viewBox="0 0 512 512" style="enable-background:new 0 0 512 512;" xml:space="preserve">
<g>
	<g>
		<path d="M435.96,113.552h-10.139h-45.624h-25.347V92.261V62.352c0-20.965-17.055-38.02-38.02-38.02H195.168
			c-20.965,0-38.02,17.055-38.02,38.02v29.909v21.291h-25.346H86.178H76.04H0v76.04v197.703v76.04h76.04h10.139h45.624h248.396
			h45.624h10.139H512v-76.04V189.592v-76.04H435.96z M15.208,128.76H60.29c-3.344,23.276-21.806,41.738-45.082,45.082V128.76z
			 M15.208,448.127v-45.082c23.276,3.344,41.739,21.805,45.082,45.082H15.208z M86.178,448.127H75.607
			c-3.518-31.671-28.729-56.881-60.399-60.399V189.159c31.671-3.518,56.881-28.729,60.399-60.399h10.572V448.127z M116.594,448.127
			h-15.208V128.76h15.208V448.127z M172.356,62.352c0-12.579,10.234-22.812,22.812-22.812h121.663
			c12.578,0,22.812,10.233,22.812,22.812v14.701H172.356V62.352z M172.356,92.261h167.287v21.291H172.356V92.261z M380.198,448.127
			H131.802V128.76h25.346h197.703h25.347V448.127z M410.614,448.127h-15.208V128.76h15.208V448.127z M496.792,448.127H451.71
			c3.344-23.276,21.806-41.738,45.082-45.082V448.127z M496.792,387.727c-31.671,3.518-56.881,28.729-60.399,60.399h-10.572V128.76
			h10.572c3.518,31.671,28.729,56.881,60.399,60.399V387.727z M496.792,173.843c-23.276-3.344-41.739-21.805-45.082-45.082h45.082
			V173.843z"/>
	</g>
</g>
<g>
	<g>
		<rect x="67.422" y="472.459" width="30.416" height="15.208"/>
	</g>
</g>
<g>
	<g>
		<rect x="412.135" y="472.459" width="30.416" height="15.208"/>
	</g>
</g>
<g>
	<g>
		<rect x="189.085" y="50.693" width="15.208" height="15.208"/>
	</g>
</g>
<g>
	<g>
		<rect x="249.917" y="50.693" width="15.208" height="15.208"/>
	</g>
</g>
<g>
	<g>
		<rect x="219.501" y="50.693" width="15.208" height="15.208"/>
	</g>
</g>
<g>
	<g>
		<rect x="280.333" y="50.693" width="15.208" height="15.208"/>
	</g>
</g>
<g>
	<g>
		<rect x="310.749" y="50.693" width="15.208" height="15.208"/>
	</g>
</g>
<g>
	<g>
		<path d="M313.348,258.708l23.458-23.457c5.223-5.309,8.068-12.333,8.007-19.78c-0.06-7.447-3.016-14.425-8.324-19.649
			c-5.308-5.223-12.364-8.081-19.78-8.007c-7.448,0.06-14.425,3.016-19.606,8.28l-23.641,23.641l-88.913-39.299l-24.077,24.077
			l71.736,56.477l-26.566,26.567l-22.976,3.015l-25.012,25.013l39.848,20.212l21.23,41.532l25.097-25.503l0.994-24.594
			l27.243-27.243l58.39,71.802l23.868-24.254L313.348,258.708z M183.337,203.158l4.598-4.599l73.998,32.708l-18.893,18.893
			L183.337,203.158z M229.87,320.681l-0.998,24.663l-6.192,6.293l-13.886-27.165l-25.556-12.963l6.53-6.53l22.976-3.015
			l95.157-95.158c2.375-2.413,5.546-3.756,8.931-3.784c0.034,0,0.069,0,0.105,0c3.346,0,6.498,1.291,8.886,3.641
			c2.413,2.375,3.756,5.547,3.784,8.932c0.026,3.384-1.266,6.578-3.598,8.947L229.87,320.681z M282.878,289.18l19.011-19.011
			l34.226,74.193l-4.578,4.652L282.878,289.18z"/>
	</g>
</g>
<g>
</g>
<g>
</g>
<g>
</g>
<g>
</g>
<g>
</g>
<g>
</g>
<g>
</g>
<g>
</g>
<g>
</g>
<g>
</g>
<g>
</g>
<g>
</g>
<g>
</g>
<g>
</g>
<g>
</g>
</svg>
